<svg width="56" height="56" viewBox="0 0 56 56" fill="none" xmlns="http://www.w3.org/2000/svg">
  <g clip-path="url(#clip0_1873_1253)">
  <path d="M56 0H0V56H56V0Z" fill="#99BA96"/>
  <path d="M45.6259 10.3739H10.3739V45.6259H45.6259V10.3739Z" fill="#397E32"/>
  <path d="M28.4536 14.3518L32.4315 23.0955C32.4967 23.2368 32.6326 23.3346 32.7847 23.3509L42.099 24.2856C42.474 24.3237 42.6262 24.7856 42.349 25.041L35.1106 31.7251C34.9965 31.8338 34.9475 31.9914 34.9802 32.1435L37.0886 41.0014C37.1756 41.3763 36.7735 41.6752 36.442 41.4742L28.2852 36.567C28.1493 36.4855 27.9754 36.4855 27.8341 36.567L19.6719 41.4796C19.3404 41.6807 18.9328 41.3818 19.0252 41.0068L21.1337 32.149C21.1717 31.9968 21.1228 31.8338 21.0033 31.7305L13.7648 25.0355C13.4877 24.7801 13.6453 24.3182 14.0148 24.2802L23.3291 23.3455C23.4813 23.3292 23.6171 23.2314 23.6823 23.0901L27.6602 14.3464C27.8178 14.0094 28.3015 14.0094 28.4536 14.3518Z" fill="white"/>
  </g>
  <defs>
  <clipPath id="clip0_1873_1253">
  <rect width="56" height="56" rx="7" fill="white"/>
  </clipPath>
  </defs>
</svg>
